<svg width="21" height="21" viewBox="0 0 21 21" fill="none"
    xmlns="http://www.w3.org/2000/svg">
    <path d="M20.7501 19.6895L15.0861 14.0255C16.4472 12.3914 17.1259 10.2956 16.9811 8.17389C16.8363 6.05219 15.879 4.06801 14.3085 2.6341C12.738 1.2002 10.6751 0.42697 8.54906 0.475279C6.42297 0.523588 4.39735 1.38971 2.89359 2.89347C1.38983 4.39723 0.52371 6.42284 0.475401 8.54893C0.427093 10.675 1.20032 12.7379 2.63422 14.3084C4.06813 15.8789 6.05232 16.8361 8.17401 16.981C10.2957 17.1258 12.3916 16.4471 14.0256 15.086L19.6896 20.75L20.7501 19.6895ZM2.00009 8.74996C2.00009 7.41494 2.39597 6.1099 3.13767 4.99987C3.87937 3.88983 4.93357 3.02467 6.16697 2.51378C7.40037 2.00289 8.75757 1.86921 10.0669 2.12966C11.3763 2.39011 12.5791 3.03299 13.5231 3.97699C14.4671 4.921 15.1099 6.12373 15.3704 7.4331C15.6308 8.74248 15.4972 10.0997 14.9863 11.3331C14.4754 12.5665 13.6102 13.6207 12.5002 14.3624C11.3902 15.1041 10.0851 15.5 8.75009 15.5C6.96048 15.498 5.24475 14.7862 3.97931 13.5207C2.71387 12.2553 2.00207 10.5396 2.00009 8.74996Z" fill="#728BA3"/>
</svg>
